<svg viewBox="0 0 100 100" fill="none" xmlns="http://www.w3.org/2000/svg">
<path d="M45.8541 21.7033V68.2449L25.5208 47.9116C23.8958 46.2866 21.2291 46.2866 19.6041 47.9116C17.9791 49.5366 17.9791 52.1616 19.6041 53.7866L47.0625 81.2449C48.6875 82.8699 51.3125 82.8699 52.9375 81.2449L80.3958 53.7866C82.0208 52.1616 82.0208 49.5366 80.3958 47.9116C79.6173 47.1314 78.5605 46.6929 77.4583 46.6929C76.3561 46.6929 75.2993 47.1314 74.5208 47.9116L54.1875 68.2449V21.7033C54.1875 19.4116 52.3125 17.5366 50.0208 17.5366C47.7291 17.5366 45.8541 19.4116 45.8541 21.7033Z" fill="white"/>
</svg>
